<svg width="90" height="21" viewBox="0 0 90 21" fill="none" xmlns="http://www.w3.org/2000/svg">
<g clip-path="url(#clip0_403_56072)">
<path fill-rule="evenodd" clip-rule="evenodd" d="M7.48934 3.08596L0 10.5C1.498 11.983 3.20924 13.2328 5.07498 14.2105C5.59068 15.5647 6.39902 16.8347 7.5 17.9246C11.6422 22.0251 18.3579 22.0251 22.5 17.9246C23.601 16.8347 24.4093 15.5647 24.925 14.2105C26.7907 13.2328 28.502 11.983 30 10.5L22.5167 3.09199C22.5112 3.08645 22.5056 3.08091 22.5 3.07537C18.3579 -1.02512 11.6422 -1.02512 7.5 3.07537C7.49645 3.07891 7.49289 3.08243 7.48934 3.08596ZM21.7834 15.5482C19.6009 16.2773 17.3098 16.6507 15 16.6507C12.6902 16.6507 10.3992 16.2773 8.2167 15.5482C8.45317 15.8587 8.71425 16.1568 9 16.4397C12.3137 19.7201 17.6863 19.7201 21 16.4397C21.2857 16.1568 21.5469 15.8587 21.7834 15.5482ZM9.15382 4.4118C9.71655 4.77983 10.3149 5.09476 10.941 5.35152C12.2278 5.87919 13.6071 6.15078 15 6.15078C16.3929 6.15078 17.7722 5.87919 19.059 5.35152C19.6851 5.09476 20.2834 4.77982 20.8463 4.41178C17.5739 1.3294 12.4262 1.3294 9.15382 4.4118Z" fill="#212143"/>
</g>
<path d="M39.328 16.5V5.3H44.8C46.208 5.3 47.264 5.56667 47.968 6.1C48.6827 6.63333 49.04 7.33733 49.04 8.212C49.04 8.79867 48.896 9.31067 48.608 9.748C48.32 10.1747 47.9253 10.5053 47.424 10.74C46.9227 10.9747 46.3467 11.092 45.696 11.092L46 10.436C46.704 10.436 47.328 10.5533 47.872 10.788C48.416 11.012 48.8373 11.348 49.136 11.796C49.4453 12.244 49.6 12.7933 49.6 13.444C49.6 14.404 49.2213 15.156 48.464 15.7C47.7067 16.2333 46.592 16.5 45.12 16.5H39.328ZM41.904 14.548H44.928C45.6 14.548 46.1067 14.4413 46.448 14.228C46.8 14.004 46.976 13.652 46.976 13.172C46.976 12.7027 46.8 12.356 46.448 12.132C46.1067 11.8973 45.6 11.78 44.928 11.78H41.712V9.892H44.48C45.1093 9.892 45.5893 9.78533 45.92 9.572C46.2613 9.348 46.432 9.012 46.432 8.564C46.432 8.12667 46.2613 7.80133 45.92 7.588C45.5893 7.364 45.1093 7.252 44.48 7.252H41.904V14.548ZM51.5624 16.5V5.3H54.1544V16.5H51.5624ZM56.8124 16.5V5.3H61.6604C62.663 5.3 63.527 5.46533 64.2524 5.796C64.9777 6.116 65.5377 6.58 65.9324 7.188C66.327 7.796 66.5244 8.52133 66.5244 9.364C66.5244 10.196 66.327 10.916 65.9324 11.524C65.5377 12.132 64.9777 12.6013 64.2524 12.932C63.527 13.252 62.663 13.412 61.6604 13.412H58.2524L59.4044 12.244V16.5H56.8124ZM59.4044 12.532L58.2524 11.3H61.5164C62.3164 11.3 62.9137 11.1293 63.3084 10.788C63.703 10.4467 63.9004 9.972 63.9004 9.364C63.9004 8.74533 63.703 8.26533 63.3084 7.924C62.9137 7.58267 62.3164 7.412 61.5164 7.412H58.2524L59.4044 6.18V12.532ZM66.3404 16.5L71.3324 5.3H73.8924L78.9004 16.5H76.1804L72.0844 6.612H73.1084L68.9964 16.5H66.3404ZM68.8364 14.1L69.5244 12.132H75.2844L75.9884 14.1H68.8364ZM82.1589 16.5V11.924L82.7509 13.492L77.8229 5.3H80.5749L84.3509 11.588H82.7669L86.5589 5.3H89.1029L84.1749 13.492L84.7509 11.924V16.5H82.1589Z" fill="#212143"/>
<defs>
<clipPath id="clip0_403_56072">
<rect width="30" height="21" fill="white"/>
</clipPath>
</defs>
</svg>
